<?xml version="1.0" standalone="no"?>
<!DOCTYPE svg PUBLIC "-//W3C//DTD SVG 20010904//EN"
 "http://www.w3.org/TR/2001/REC-SVG-20010904/DTD/svg10.dtd">
<svg version="1.0" xmlns="http://www.w3.org/2000/svg"
 width="150.000000pt" height="230.000000pt" viewBox="0 0 150.000000 230.000000"
 preserveAspectRatio="xMidYMid meet">
<metadata>
Created by potrace 1.15, written by Peter Selinger 2001-2017
</metadata>
<g transform="translate(0.000000,230.000000) scale(0.100000,-0.100000)"
fill="#000000" stroke="none">
<path d="M883 1411 c-69 -32 -103 -113 -72 -174 6 -12 45 -55 87 -94 74 -70
76 -74 58 -88 -25 -19 -49 -19 -115 1 -29 8 -55 13 -57 11 -3 -2 -2 -34 2 -70
l7 -65 36 -6 c56 -9 162 -7 203 4 75 21 121 95 104 167 -4 17 -41 60 -89 106
-79 75 -81 78 -62 93 20 15 46 15 124 -2 l33 -7 -7 64 c-4 35 -9 66 -12 69 -2
2 -48 6 -101 8 -80 2 -104 -1 -139 -17z"/>
<path d="M366 1238 c-3 -101 -9 -211 -13 -245 l-6 -63 195 0 195 0 7 38 c12
76 18 72 -101 72 l-106 0 6 190 7 190 -89 0 -88 0 -7 -182z"/>
</g>
</svg>
